<svg width="528" height="642" viewBox="0 0 528 642" fill="none" xmlns="http://www.w3.org/2000/svg">
<path d="M264 641.976C258.922 641.976 250.987 640.071 242.735 635.628C62.4619 534.065 0.254883 491.536 0.254883 375.691V132.894C0.254883 99.5684 14.8545 88.7773 41.5146 77.6689C78.9658 62.4346 200.206 16.4141 237.657 5.62305C245.909 3.40137 255.113 0.862305 264 0.862305C272.887 0.862305 282.091 2.7666 290.66 5.62305C328.111 18.6357 449.034 62.1172 486.485 77.6689C513.463 89.0947 527.745 99.5684 527.745 132.894V375.691C527.745 491.536 465.855 534.383 285.265 635.628C277.33 640.071 269.078 641.976 264 641.976ZM264 584.529C269.078 584.529 274.474 582.625 283.678 576.912C430.309 487.728 477.281 462.02 477.281 363.948V142.732C477.281 131.941 475.377 127.498 466.808 124.324C417.613 107.503 324.62 73.8604 276.695 54.8174C271.617 52.9131 267.491 51.9609 264 51.9609C260.509 51.9609 256.383 52.5957 251.305 54.8174C203.38 73.8604 109.752 105.281 61.5098 124.324C52.623 127.815 50.7188 131.941 50.7188 142.732V363.948C50.7188 462.02 97.6914 488.045 244.322 576.912C253.844 582.625 258.922 584.529 264 584.529Z" fill="white"/>
</svg>
